<?xml version="1.0" encoding="UTF-8"?>
<svg id="Layer_1" data-name="Layer 1" xmlns="http://www.w3.org/2000/svg" viewBox="0 0 4633.32 1500">
  <defs>
    <style>
      .cls-1 {
        fill: #010101;
        stroke-width: 0px;
      }

      .cls-2 {
        fill: #231f20;
        font-size: 650px;
      }

      .cls-3 {
        font-family: OpenSans-Light, 'Open Sans';
        font-weight: 300;
      }

      .cls-4 {
        letter-spacing: -.04em;
      }

      .cls-4, .cls-5 {
        font-family: Garamond-Bold, Garamond;
        font-weight: 700;
      }
    </style>
  </defs>
  <path class="cls-1" d="m927.97,1296.32c-115.39,54.33-218.37,54.86-218.37,54.86-45.84.23-110.74-6.73-111.3-2.65-.31,2.28,24.16,7.31,25.3,7.58,612,148.87,1008.43-592.39,562.52-1046.37-35.02-35.66-61.36-52.43-116.91-90.24,120,71.25,167.03,112.4,245.39,237.22,256.63,408.8-91.15,948.65-563.68,927.78-52.1-.75-104.79-9.94-152.26-20.98,7.11,3.19,19.16,7.03,30.78,9.91,229.52,61.91,492.02-25.33,644.42-209.98,194.46-219.21,188.23-548.91,34.3-779.33,36.24,47.87,65.4,100.96,85.44,158.3,145.31,414.54-156.14,857.61-608.43,861.8-21.13.2-63.87-1.97-84.95-4.32,0,0,113.35,15.4,154.3,10.72,599.6-59.12,806.29-867.18,303.86-1206.97C860.87.33,447.32,74.69,236.16,360.32c-188.62,247.56-195.53,642.93,29.73,852.88,254.72,237.4,376.56,82.33,175.2-175.15-82.66-105.7-101.69-220.74-99.69-288.05,5.36-180.53,122.04-325.15,304.11-367.53,73.74-17.16,143.61-18,208.36-6.17,43.27,7.91,142.16,27.26,231.17,108.23,100.32,91.28,126.01,204.36,132.52,234.99,51.74,243.48-117.51,495.77-289.58,576.79ZM430.51,215.33c33.36-22.32,68.15-40.65,103.87-55.21-36.29,15.17-71.14,33.61-103.87,55.21Z"/>
  <rect class="cls-1" x="542.68" y="738.13" width="451.76" height="113.12" rx="20.56" ry="20.56"/>
  <rect class="cls-1" x="542.68" y="562.17" width="451.76" height="113.12" rx="20.56" ry="20.56"/>
  <rect class="cls-1" x="542.68" y="914.09" width="451.76" height="113.12" rx="20.56" ry="20.56"/>
  <text class="cls-2" transform="translate(1690.93 970.65)"><tspan class="cls-3" x="0" y="0">Zen</tspan><tspan class="cls-4" x="1114.65" y="0">W</tspan><tspan class="cls-5" x="1672.92" y="0">riter</tspan></text>
</svg>